<?xml version="1.0" encoding="UTF-8" standalone="no"?>
<!-- Created with Inkscape (http://www.inkscape.org/) -->

<svg
   xmlns:osb="http://www.openswatchbook.org/uri/2009/osb"
   xmlns:dc="http://purl.org/dc/elements/1.1/"
   xmlns:cc="http://creativecommons.org/ns#"
   xmlns:rdf="http://www.w3.org/1999/02/22-rdf-syntax-ns#"
   xmlns:svg="http://www.w3.org/2000/svg"
   xmlns="http://www.w3.org/2000/svg"
   xmlns:sodipodi="http://sodipodi.sourceforge.net/DTD/sodipodi-0.dtd"
   xmlns:inkscape="http://www.inkscape.org/namespaces/inkscape"
   width="210mm"
   height="297mm"
   viewBox="0 0 210 297"
   version="1.1"
   id="svg8"
   inkscape:version="0.92.4 (5da689c313, 2019-01-14)"
   sodipodi:docname="a-startup_logo.svg"
   inkscape:export-filename="C:\workspace\a-startup\logos\a-startup_logo.png"
   inkscape:export-xdpi="96"
   inkscape:export-ydpi="96">
  <defs
     id="defs2">
    <inkscape:path-effect
       effect="bspline"
       id="path-effect1092"
       is_visible="true"
       weight="33.333333"
       steps="2"
       helper_size="0"
       apply_no_weight="true"
       apply_with_weight="true"
       only_selected="false" />
    <inkscape:path-effect
       effect="bspline"
       id="path-effect1088"
       is_visible="true"
       weight="33.333333"
       steps="2"
       helper_size="0"
       apply_no_weight="true"
       apply_with_weight="true"
       only_selected="false" />
    <inkscape:path-effect
       effect="bspline"
       id="path-effect7237"
       is_visible="true"
       weight="33.333333"
       steps="2"
       helper_size="0"
       apply_no_weight="true"
       apply_with_weight="true"
       only_selected="false" />
    <inkscape:path-effect
       effect="bspline"
       id="path-effect7233"
       is_visible="true"
       weight="33.333333"
       steps="2"
       helper_size="0"
       apply_no_weight="true"
       apply_with_weight="true"
       only_selected="false" />
    <inkscape:path-effect
       effect="bspline"
       id="path-effect7207"
       is_visible="true"
       weight="33.333333"
       steps="2"
       helper_size="0"
       apply_no_weight="true"
       apply_with_weight="true"
       only_selected="false" />
    <inkscape:path-effect
       effect="bspline"
       id="path-effect7203"
       is_visible="true"
       weight="33.333333"
       steps="2"
       helper_size="0"
       apply_no_weight="true"
       apply_with_weight="true"
       only_selected="false" />
    <inkscape:path-effect
       effect="bspline"
       id="path-effect7199"
       is_visible="true"
       weight="33.333333"
       steps="2"
       helper_size="0"
       apply_no_weight="true"
       apply_with_weight="true"
       only_selected="false" />
    <inkscape:path-effect
       effect="bspline"
       id="path-effect7195"
       is_visible="true"
       weight="33.333333"
       steps="2"
       helper_size="0"
       apply_no_weight="true"
       apply_with_weight="true"
       only_selected="false" />
    <inkscape:path-effect
       effect="bspline"
       id="path-effect7191"
       is_visible="true"
       weight="33.333333"
       steps="2"
       helper_size="0"
       apply_no_weight="true"
       apply_with_weight="true"
       only_selected="false" />
    <inkscape:path-effect
       effect="bspline"
       id="path-effect7187"
       is_visible="true"
       weight="33.333333"
       steps="2"
       helper_size="0"
       apply_no_weight="true"
       apply_with_weight="true"
       only_selected="false" />
    <inkscape:path-effect
       effect="bspline"
       id="path-effect7165"
       is_visible="true"
       weight="33.333333"
       steps="2"
       helper_size="0"
       apply_no_weight="true"
       apply_with_weight="true"
       only_selected="false" />
    <inkscape:path-effect
       effect="bspline"
       id="path-effect6917"
       is_visible="true"
       weight="33.333333"
       steps="2"
       helper_size="0"
       apply_no_weight="true"
       apply_with_weight="true"
       only_selected="false" />
    <inkscape:path-effect
       effect="bspline"
       id="path-effect6895"
       is_visible="true"
       weight="33.333333"
       steps="2"
       helper_size="0"
       apply_no_weight="true"
       apply_with_weight="true"
       only_selected="false" />
    <inkscape:path-effect
       effect="bspline"
       id="path-effect6887"
       is_visible="true"
       weight="33.333333"
       steps="2"
       helper_size="0"
       apply_no_weight="true"
       apply_with_weight="true"
       only_selected="false" />
    <linearGradient
       id="linearGradient6243"
       osb:paint="solid">
      <stop
         style="stop-color:#e7849a;stop-opacity:1;"
         offset="0"
         id="stop6241" />
    </linearGradient>
    <linearGradient
       id="linearGradient6196"
       osb:paint="solid">
      <stop
         style="stop-color:#b7c4c8;stop-opacity:1;"
         offset="0"
         id="stop6194" />
    </linearGradient>
    <inkscape:path-effect
       effect="bspline"
       id="path-effect6895-7"
       is_visible="true"
       weight="33.333333"
       steps="2"
       helper_size="0"
       apply_no_weight="true"
       apply_with_weight="true"
       only_selected="false" />
    <inkscape:path-effect
       effect="bspline"
       id="path-effect6895-5"
       is_visible="true"
       weight="33.333333"
       steps="2"
       helper_size="0"
       apply_no_weight="true"
       apply_with_weight="true"
       only_selected="false" />
    <inkscape:path-effect
       effect="bspline"
       id="path-effect6895-5-6"
       is_visible="true"
       weight="33.333333"
       steps="2"
       helper_size="0"
       apply_no_weight="true"
       apply_with_weight="true"
       only_selected="false" />
    <inkscape:path-effect
       effect="bspline"
       id="path-effect6917-2"
       is_visible="true"
       weight="33.333333"
       steps="2"
       helper_size="0"
       apply_no_weight="true"
       apply_with_weight="true"
       only_selected="false" />
    <inkscape:path-effect
       effect="bspline"
       id="path-effect6895-5-6-9"
       is_visible="true"
       weight="33.333333"
       steps="2"
       helper_size="0"
       apply_no_weight="true"
       apply_with_weight="true"
       only_selected="false" />
    <inkscape:path-effect
       effect="bspline"
       id="path-effect6917-6"
       is_visible="true"
       weight="33.333333"
       steps="2"
       helper_size="0"
       apply_no_weight="true"
       apply_with_weight="true"
       only_selected="false" />
    <inkscape:path-effect
       effect="bspline"
       id="path-effect6895-5-6-9-7"
       is_visible="true"
       weight="33.333333"
       steps="2"
       helper_size="0"
       apply_no_weight="true"
       apply_with_weight="true"
       only_selected="false" />
    <inkscape:path-effect
       effect="bspline"
       id="path-effect6895-5-6-9-7-1"
       is_visible="true"
       weight="33.333333"
       steps="2"
       helper_size="0"
       apply_no_weight="true"
       apply_with_weight="true"
       only_selected="false" />
    <inkscape:path-effect
       effect="bspline"
       id="path-effect6917-4"
       is_visible="true"
       weight="33.333333"
       steps="2"
       helper_size="0"
       apply_no_weight="true"
       apply_with_weight="true"
       only_selected="false" />
    <inkscape:path-effect
       effect="bspline"
       id="path-effect6917-4-6"
       is_visible="true"
       weight="33.333333"
       steps="2"
       helper_size="0"
       apply_no_weight="true"
       apply_with_weight="true"
       only_selected="false" />
    <inkscape:path-effect
       effect="bspline"
       id="path-effect6895-5-6-9-79"
       is_visible="true"
       weight="33.333333"
       steps="2"
       helper_size="0"
       apply_no_weight="true"
       apply_with_weight="true"
       only_selected="false" />
  </defs>
  <sodipodi:namedview
     id="base"
     pagecolor="#ffffff"
     bordercolor="#666666"
     borderopacity="1.0"
     inkscape:pageopacity="0.0"
     inkscape:pageshadow="2"
     inkscape:zoom="0.70710678"
     inkscape:cx="-41.211084"
     inkscape:cy="171.49055"
     inkscape:document-units="mm"
     inkscape:current-layer="layer1"
     showgrid="true"
     inkscape:window-width="1920"
     inkscape:window-height="1017"
     inkscape:window-x="1072"
     inkscape:window-y="2152"
     inkscape:window-maximized="1"
     inkscape:snap-bbox="true"
     inkscape:snap-global="true"
     inkscape:snap-grids="false"
     inkscape:snap-to-guides="true">
    <inkscape:grid
       type="xygrid"
       id="grid7239" />
  </sodipodi:namedview>
  <metadata
     id="metadata5">
    <rdf:RDF>
      <cc:Work
         rdf:about="">
        <dc:format>image/svg+xml</dc:format>
        <dc:type
           rdf:resource="http://purl.org/dc/dcmitype/StillImage" />
        <dc:title />
      </cc:Work>
    </rdf:RDF>
  </metadata>
  <g
     inkscape:label="Layer 1"
     inkscape:groupmode="layer"
     id="layer1">
    <path
       style="fill:#000000;fill-opacity:1;stroke:none;stroke-width:6.92577934;stroke-linecap:square;stroke-linejoin:miter;stroke-miterlimit:4;stroke-dasharray:none;stroke-dashoffset:0;stroke-opacity:1;paint-order:fill markers stroke"
       d="m 209.64844,887.32617 v 13.66602 c 0,11.91252 -0.069,13.66601 -0.53125,13.66601 -0.29168,0 -0.5293,0.23957 -0.5293,0.53125 0,0.46483 -2.3589,0.53125 -19.09375,0.53125 -16.73486,0 -19.0918,-0.0664 -19.0918,-0.53125 0,-0.29168 -0.23761,-0.53125 -0.52929,-0.53125 -0.46223,0 -0.53125,-1.74961 -0.53125,-13.6289 v -13.62891 l -2.03125,0.18555 c -1.11811,0.1017 -3.78483,0.27622 -5.92383,0.38867 -5.05709,0.26588 -10.57186,1.07862 -13.54102,1.99414 -8.50563,2.62265 -11.46878,7.21883 -12.95312,20.09375 -0.47651,4.13293 -0.5504,12.60082 -0.55078,63.14648 -2.6e-4,35.68492 -0.13908,60.14642 -0.35547,62.93362 -1.02703,13.2283 -3.18382,19.7416 -8.02735,24.2383 -2.06199,1.9143 -4.2357,3.0897 -7.70507,4.164 -5.52134,1.7096 -7.94007,1.8807 -28.902348,2.0489 -10.840828,0.087 -19.710937,0.199 -19.710937,0.25 0,0.05 0.09961,35.5039 0.09961,35.5039 l 6.226563,-0.1485 c 3.424026,-0.082 13.54338,-0.2301 22.488281,-0.3281 20.396962,-0.2226 26.955942,-0.6772 36.382812,-2.5215 10.38498,-2.0318 17.12561,-5.2984 22.30664,-10.8066 3.96622,-4.2167 6.38459,-8.9392 8.30274,-16.2168 2.12027,-8.0445 3.00713,-17.0047 3.40039,-34.3653 0.19314,-8.5266 0.33012,-10.5175 0.7207,-10.5175 0.26499,0 0.48047,-0.2396 0.48047,-0.5313 0,-0.4603 1.52681,-0.5293 11.61133,-0.5293 16.84682,0 26.57422,0.3435 26.57422,0.9395 0,0.2608 0.2376,0.4746 0.52929,0.4746 0.43063,0 0.53771,0.6139 0.56641,3.2695 0.54064,50.0317 0.59052,52.4313 1.1582,54.8848 2.28421,9.8721 5.73608,13.2467 15.77539,15.4179 2.40081,0.5192 50.79044,0.837 49.67578,0.3262 -0.38891,-0.1782 -2.83042,-1.213 -5.42383,-2.2988 -19.80427,-8.2917 -25.11828,-14.2848 -25.80273,-29.0977 -0.13265,-2.8615 -0.19492,-30.6195 -0.14062,-61.6836 0.0864,-49.42362 0.16218,-56.47848 0.61718,-56.47848 0.28598,0 0.52149,-0.23916 0.52149,-0.5293 0,-0.46067 2.63981,-0.53759 20.83984,-0.61719 l 20.8418,-0.0918 c 0,0 6.1452,8.5195 20.68359,8.53515 15.65473,-4.1e-4 28.34529,-12.69097 28.34571,-28.3457 6.6e-4,-15.65549 -12.69022,-28.34725 -28.34571,-28.34766 -14.37022,0.0105 -23.97851,12.62696 -23.97851,12.62696 h -19.44727 -19.44727 l -0.7539,-0.87696 c -0.65285,-0.75977 -0.78189,-1.47798 -0.9668,-5.39257 -0.80734,-17.09155 -5.42031,-20.79557 -26.8164,-21.53125 z m 97.79687,21.74219 c 12.51479,-0.47982 23.0491,9.27624 23.5293,21.79102 0.4798,12.51552 -9.27743,23.05014 -21.79297,23.52929 -12.51479,0.47982 -23.0491,-9.27624 -23.5293,-21.79101 -0.47981,-12.51552 9.27742,-23.05015 21.79297,-23.5293 z m -116.53906,43.24414 8.65039,18.55664 c 6.97457,14.96384 8.54878,18.61097 8.13281,18.84375 -0.2837,0.15877 -0.51757,0.51876 -0.51757,0.80078 -10e-6,0.44136 -2.53512,0.51367 -18.20704,0.51367 -15.67193,0 -18.20898,-0.0723 -18.20898,-0.51367 0,-0.28202 -0.22737,-0.64101 -0.50586,-0.79687 -0.40037,-0.22405 1.47568,-4.1602 8.96484,-18.81055 9.41677,-18.42118 9.47837,-18.52785 10.58204,-18.56055 z M 47.244141,1056.3789 c -15.654726,4e-4 -28.345285,12.691 -28.345703,28.3457 4.18e-4,15.6547 12.690977,28.3453 28.345703,28.3457 15.654726,-4e-4 28.345285,-12.691 28.345703,-28.3457 -4.18e-4,-15.6547 -12.690977,-28.3453 -28.345703,-28.3457 z"
       id="path6889"
       inkscape:connector-curvature="0"
       sodipodi:nodetypes="cssssssscccscsccccsccccccssssssccccccssscccccccccscccccccccccsscsccccccc"
       transform="scale(0.26458333)" />
    <ellipse
       style="fill:#ffffff;fill-opacity:1;stroke:none;stroke-width:1.49618566;stroke-linecap:square;stroke-linejoin:miter;stroke-miterlimit:4;stroke-dasharray:none;stroke-dashoffset:0;stroke-opacity:1;paint-order:fill markers stroke"
       id="path6889-0-9"
       cx="108.9836"
       cy="236.03203"
       rx="6"
       ry="6.25" />
    <circle
       style="fill:#000000;fill-opacity:1;stroke:none;stroke-width:0.61081529;stroke-linecap:square;stroke-linejoin:miter;stroke-miterlimit:4;stroke-dasharray:none;stroke-dashoffset:0;stroke-opacity:1;paint-order:fill markers stroke"
       id="path6889-0-9-3"
       cx="81.542023"
       cy="246.94626"
       r="2.5" />
    <text
       xml:space="preserve"
       style="font-style:normal;font-weight:normal;font-size:10.58333302px;line-height:1.25;font-family:sans-serif;letter-spacing:0px;word-spacing:0px;fill:#000000;fill-opacity:1;stroke:none;stroke-width:0.26458332"
       x="68.92395"
       y="264.32397"
       id="text7243"><tspan
         sodipodi:role="line"
         id="tspan7241"
         x="68.92395"
         y="264.32397"
         style="stroke-width:0.26458332">&gt;</tspan></text>
    <text
       xml:space="preserve"
       style="font-style:normal;font-weight:normal;font-size:10.58333302px;line-height:1.25;font-family:sans-serif;letter-spacing:0px;word-spacing:0px;fill:#000000;fill-opacity:1;stroke:none;stroke-width:0.26458332"
       x="75.141663"
       y="264.05936"
       id="text7247"><tspan
         sodipodi:role="line"
         id="tspan7245"
         x="75.141663"
         y="264.05936"
         style="stroke-width:0.26458332">|</tspan></text>
    <text
       xml:space="preserve"
       style="font-style:normal;font-weight:normal;font-size:10.58333302px;line-height:1.25;font-family:sans-serif;letter-spacing:0px;word-spacing:0px;fill:#000000;fill-opacity:1;stroke:none;stroke-width:0.26458332"
       x="77.40667"
       y="264.19736"
       id="text7251"><tspan
         sodipodi:role="line"
         id="tspan7249"
         x="77.40667"
         y="264.19736"
         style="stroke-width:0.26458332">&lt;</tspan></text>
    <path
       style="fill:#000000;fill-opacity:0;stroke:none;stroke-width:0.66813242;stroke-linecap:square;stroke-linejoin:round;stroke-miterlimit:4;stroke-dasharray:none;stroke-dashoffset:0;stroke-opacity:1;paint-order:fill markers stroke"
       d="m 70.954033,1100.5443 c 6.284971,-9.2264 6.198567,-22.9445 -0.201188,-31.9419 l -1.171495,-1.6471 17.767374,-0.2249 c 23.473016,-0.2971 28.545836,-0.8445 34.538566,-3.7269 6.30845,-3.0343 9.84879,-9.2682 11.30887,-19.913 0.97782,-7.1288 1.08811,-14.2559 1.08852,-70.33942 3.5e-4,-62.34219 0.0262,-63.35355 1.78517,-70.29152 2.70731,-10.67828 8.81467,-13.84527 28.53161,-14.79517 l 5.03813,-0.24272 v 13.66447 c 0,8.87394 0.12395,13.66447 0.35356,13.66447 0.19445,0 0.35355,0.23865 0.35355,0.53033 0,0.46486 2.35702,0.53033 19.09188,0.53033 16.73486,0 19.09189,-0.0655 19.09189,-0.53033 0,-0.29168 0.23864,-0.53033 0.53033,-0.53033 0.46222,0 0.53033,-1.74813 0.53033,-13.61181 V 887.527 l 5.92201,0.003 c 15.70528,0.008 22.59332,2.43369 25.72894,9.06184 1.31197,2.77327 1.88419,5.71829 2.34326,12.06007 0.31504,4.35192 0.53052,5.74524 0.88851,5.74524 0.25994,0 0.47261,0.23865 0.47261,0.53033 0,0.46501 2.40768,0.53033 19.54777,0.53033 H 284.042 l -1.48558,3.03426 c -2.18325,4.45924 -2.78625,7.21546 -2.77821,12.69887 0.005,3.24372 0.1885,5.27244 0.62447,6.89429 0.91843,3.41672 3.43025,8.37199 5.51134,10.87267 l 1.83818,2.20881 h -21.04931 c -17.92449,0 -21.04932,0.0743 -21.04932,0.50087 0,0.27547 -0.16735,0.55664 -0.37188,0.62482 -0.25786,0.086 -0.39336,18.768 -0.44194,60.929 -0.0788,68.3758 -0.26612,63.347 2.58123,69.2904 3.23263,6.7476 10.11668,11.5835 25.17722,17.6867 l 4.6984,1.904 -21.38998,0.015 c -21.43579,0.015 -26.86487,-0.2041 -31.64046,-1.2796 -7.37868,-1.6618 -11.40734,-5.5234 -13.22179,-12.6736 -1.12922,-4.4498 -1.45321,-8.9177 -1.45369,-20.0464 -9.3e-4,-21.1955 -0.43641,-40.5842 -0.91155,-40.5842 -0.24381,0 -0.49927,-0.1679 -0.56769,-0.3731 -0.084,-0.2522 -6.28688,-0.4425 -19.12134,-0.5869 -17.54972,-0.1974 -18.99695,-0.169 -18.99695,0.3732 0,0.3227 -0.21444,0.5868 -0.47653,0.5868 -0.38604,0 -0.51914,2.2998 -0.70089,12.1092 -0.1234,6.6601 -0.38477,13.8593 -0.58083,15.9983 -2.94549,32.1348 -12.84817,42.2299 -44.55725,45.4229 -5.63622,0.5676 -21.78389,1.049 -38.720021,1.1543 l -15.208723,0.095 z M 207.44626,989.92469 c 0.4119,-0.76964 -0.26541,-2.37643 -8.09754,-19.20973 -8.30124,-17.84153 -8.57549,-18.36984 -9.5359,-18.36984 -0.94993,0 -1.36197,0.73107 -10.46642,18.57029 -5.76911,11.30398 -9.3149,18.62452 -9.06186,18.70887 0.22864,0.0762 0.41571,0.36396 0.41571,0.63944 0,0.42562 2.72664,0.50087 18.14826,0.50087 h 18.14825 z"
       id="path1096"
       inkscape:connector-curvature="0"
       transform="scale(0.26458333)" />
    <path
       style="fill:#000000;fill-opacity:0;stroke:none;stroke-width:0.66813242;stroke-linecap:square;stroke-linejoin:round;stroke-miterlimit:4;stroke-dasharray:none;stroke-dashoffset:0;stroke-opacity:1;paint-order:fill markers stroke"
       d="m 70.954033,1100.5443 c 6.284971,-9.2264 6.198567,-22.9445 -0.201188,-31.9419 l -1.171495,-1.6471 17.767374,-0.2249 c 23.473016,-0.2971 28.545836,-0.8445 34.538566,-3.7269 6.30845,-3.0343 9.84879,-9.2682 11.30887,-19.913 0.97782,-7.1288 1.08811,-14.2559 1.08852,-70.33942 3.5e-4,-62.34219 0.0262,-63.35355 1.78517,-70.29152 2.70731,-10.67828 8.81467,-13.84527 28.53161,-14.79517 l 5.03813,-0.24272 v 13.66447 c 0,8.87394 0.12395,13.66447 0.35356,13.66447 0.19445,0 0.35355,0.23865 0.35355,0.53033 0,0.46486 2.35702,0.53033 19.09188,0.53033 16.73486,0 19.09189,-0.0655 19.09189,-0.53033 0,-0.29168 0.23864,-0.53033 0.53033,-0.53033 0.46222,0 0.53033,-1.74813 0.53033,-13.61181 V 887.527 l 5.92201,0.003 c 15.70528,0.008 22.59332,2.43369 25.72894,9.06184 1.31197,2.77327 1.88419,5.71829 2.34326,12.06007 0.31504,4.35192 0.53052,5.74524 0.88851,5.74524 0.25994,0 0.47261,0.23865 0.47261,0.53033 0,0.46501 2.40768,0.53033 19.54777,0.53033 H 284.042 l -1.48558,3.03426 c -2.18325,4.45924 -2.78625,7.21546 -2.77821,12.69887 0.005,3.24372 0.1885,5.27244 0.62447,6.89429 0.91843,3.41672 3.43025,8.37199 5.51134,10.87267 l 1.83818,2.20881 h -21.04931 c -17.92449,0 -21.04932,0.0743 -21.04932,0.50087 0,0.27547 -0.16735,0.55664 -0.37188,0.62482 -0.25786,0.086 -0.39336,18.768 -0.44194,60.929 -0.0788,68.3758 -0.26612,63.347 2.58123,69.2904 3.23263,6.7476 10.11668,11.5835 25.17722,17.6867 l 4.6984,1.904 -21.38998,0.015 c -21.43579,0.015 -26.86487,-0.2041 -31.64046,-1.2796 -7.37868,-1.6618 -11.40734,-5.5234 -13.22179,-12.6736 -1.12922,-4.4498 -1.45321,-8.9177 -1.45369,-20.0464 -9.3e-4,-21.1955 -0.43641,-40.5842 -0.91155,-40.5842 -0.24381,0 -0.49927,-0.1679 -0.56769,-0.3731 -0.084,-0.2522 -6.28688,-0.4425 -19.12134,-0.5869 -17.54972,-0.1974 -18.99695,-0.169 -18.99695,0.3732 0,0.3227 -0.21444,0.5868 -0.47653,0.5868 -0.38604,0 -0.51914,2.2998 -0.70089,12.1092 -0.1234,6.6601 -0.38477,13.8593 -0.58083,15.9983 -2.94549,32.1348 -12.84817,42.2299 -44.55725,45.4229 -5.63622,0.5676 -21.78389,1.049 -38.720021,1.1543 l -15.208723,0.095 z M 207.44626,989.92469 c 0.4119,-0.76964 -0.26541,-2.37643 -8.09754,-19.20973 -8.30124,-17.84153 -8.57549,-18.36984 -9.5359,-18.36984 -0.94993,0 -1.36197,0.73107 -10.46642,18.57029 -5.76911,11.30398 -9.3149,18.62452 -9.06186,18.70887 0.22864,0.0762 0.41571,0.36396 0.41571,0.63944 0,0.42562 2.72664,0.50087 18.14826,0.50087 h 18.14825 z"
       id="path1098"
       inkscape:connector-curvature="0"
       transform="scale(0.26458333)" />
    <path
       style="fill:#000000;fill-opacity:0;stroke:none;stroke-width:0.66813242;stroke-linecap:square;stroke-linejoin:round;stroke-miterlimit:4;stroke-dasharray:none;stroke-dashoffset:0;stroke-opacity:1;paint-order:fill markers stroke"
       d="m 70.954033,1100.5443 c 6.284971,-9.2264 6.198567,-22.9445 -0.201188,-31.9419 l -1.171495,-1.6471 17.767374,-0.2249 c 23.473016,-0.2971 28.545836,-0.8445 34.538566,-3.7269 6.30845,-3.0343 9.84879,-9.2682 11.30887,-19.913 0.97782,-7.1288 1.08811,-14.2559 1.08852,-70.33942 3.5e-4,-62.34219 0.0262,-63.35355 1.78517,-70.29152 2.70731,-10.67828 8.81467,-13.84527 28.53161,-14.79517 l 5.03813,-0.24272 v 13.66447 c 0,8.87394 0.12395,13.66447 0.35356,13.66447 0.19445,0 0.35355,0.23865 0.35355,0.53033 0,0.46486 2.35702,0.53033 19.09188,0.53033 16.73486,0 19.09189,-0.0655 19.09189,-0.53033 0,-0.29168 0.23864,-0.53033 0.53033,-0.53033 0.46222,0 0.53033,-1.74813 0.53033,-13.61181 V 887.527 l 5.92201,0.003 c 15.70528,0.008 22.59332,2.43369 25.72894,9.06184 1.31197,2.77327 1.88419,5.71829 2.34326,12.06007 0.31504,4.35192 0.53052,5.74524 0.88851,5.74524 0.25994,0 0.47261,0.23865 0.47261,0.53033 0,0.46501 2.40768,0.53033 19.54777,0.53033 H 284.042 l -1.48558,3.03426 c -2.18325,4.45924 -2.78625,7.21546 -2.77821,12.69887 0.005,3.24372 0.1885,5.27244 0.62447,6.89429 0.91843,3.41672 3.43025,8.37199 5.51134,10.87267 l 1.83818,2.20881 h -21.04931 c -17.92449,0 -21.04932,0.0743 -21.04932,0.50087 0,0.27547 -0.16735,0.55664 -0.37188,0.62482 -0.25786,0.086 -0.39336,18.768 -0.44194,60.929 -0.0788,68.3758 -0.26612,63.347 2.58123,69.2904 3.23263,6.7476 10.11668,11.5835 25.17722,17.6867 l 4.6984,1.904 -21.38998,0.015 c -21.43579,0.015 -26.86487,-0.2041 -31.64046,-1.2796 -7.37868,-1.6618 -11.40734,-5.5234 -13.22179,-12.6736 -1.12922,-4.4498 -1.45321,-8.9177 -1.45369,-20.0464 -9.3e-4,-21.1955 -0.43641,-40.5842 -0.91155,-40.5842 -0.24381,0 -0.49927,-0.1679 -0.56769,-0.3731 -0.084,-0.2522 -6.28688,-0.4425 -19.12134,-0.5869 -17.54972,-0.1974 -18.99695,-0.169 -18.99695,0.3732 0,0.3227 -0.21444,0.5868 -0.47653,0.5868 -0.38604,0 -0.51914,2.2998 -0.70089,12.1092 -0.1234,6.6601 -0.38477,13.8593 -0.58083,15.9983 -2.94549,32.1348 -12.84817,42.2299 -44.55725,45.4229 -5.63622,0.5676 -21.78389,1.049 -38.720021,1.1543 l -15.208723,0.095 z M 207.44626,989.92469 c 0.4119,-0.76964 -0.26541,-2.37643 -8.09754,-19.20973 -8.30124,-17.84153 -8.57549,-18.36984 -9.5359,-18.36984 -0.94993,0 -1.36197,0.73107 -10.46642,18.57029 -5.76911,11.30398 -9.3149,18.62452 -9.06186,18.70887 0.22864,0.0762 0.41571,0.36396 0.41571,0.63944 0,0.42562 2.72664,0.50087 18.14826,0.50087 h 18.14825 z"
       id="path1100"
       inkscape:connector-curvature="0"
       transform="scale(0.26458333)" />
    <path
       style="fill:#000000;fill-opacity:0;stroke:none;stroke-width:0.66813242;stroke-linecap:square;stroke-linejoin:round;stroke-miterlimit:4;stroke-dasharray:none;stroke-dashoffset:0;stroke-opacity:1;paint-order:fill markers stroke"
       d="m 70.954033,1100.5443 c 6.284971,-9.2264 6.198567,-22.9445 -0.201188,-31.9419 l -1.171495,-1.6471 17.767374,-0.2249 c 23.473016,-0.2971 28.545836,-0.8445 34.538566,-3.7269 6.30845,-3.0343 9.84879,-9.2682 11.30887,-19.913 0.97782,-7.1288 1.08811,-14.2559 1.08852,-70.33942 3.5e-4,-62.34219 0.0262,-63.35355 1.78517,-70.29152 2.70731,-10.67828 8.81467,-13.84527 28.53161,-14.79517 l 5.03813,-0.24272 v 13.66447 c 0,8.87394 0.12395,13.66447 0.35356,13.66447 0.19445,0 0.35355,0.23865 0.35355,0.53033 0,0.46486 2.35702,0.53033 19.09188,0.53033 16.73486,0 19.09189,-0.0655 19.09189,-0.53033 0,-0.29168 0.23864,-0.53033 0.53033,-0.53033 0.46222,0 0.53033,-1.74813 0.53033,-13.61181 V 887.527 l 5.92201,0.003 c 15.70528,0.008 22.59332,2.43369 25.72894,9.06184 1.31197,2.77327 1.88419,5.71829 2.34326,12.06007 0.31504,4.35192 0.53052,5.74524 0.88851,5.74524 0.25994,0 0.47261,0.23865 0.47261,0.53033 0,0.46501 2.40768,0.53033 19.54777,0.53033 H 284.042 l -1.48558,3.03426 c -2.18325,4.45924 -2.78625,7.21546 -2.77821,12.69887 0.005,3.24372 0.1885,5.27244 0.62447,6.89429 0.91843,3.41672 3.43025,8.37199 5.51134,10.87267 l 1.83818,2.20881 h -21.04931 c -17.92449,0 -21.04932,0.0743 -21.04932,0.50087 0,0.27547 -0.16735,0.55664 -0.37188,0.62482 -0.25786,0.086 -0.39336,18.768 -0.44194,60.929 -0.0788,68.3758 -0.26612,63.347 2.58123,69.2904 3.23263,6.7476 10.11668,11.5835 25.17722,17.6867 l 4.6984,1.904 -21.38998,0.015 c -21.43579,0.015 -26.86487,-0.2041 -31.64046,-1.2796 -7.37868,-1.6618 -11.40734,-5.5234 -13.22179,-12.6736 -1.12922,-4.4498 -1.45321,-8.9177 -1.45369,-20.0464 -9.3e-4,-21.1955 -0.43641,-40.5842 -0.91155,-40.5842 -0.24381,0 -0.49927,-0.1679 -0.56769,-0.3731 -0.084,-0.2522 -6.28688,-0.4425 -19.12134,-0.5869 -17.54972,-0.1974 -18.99695,-0.169 -18.99695,0.3732 0,0.3227 -0.21444,0.5868 -0.47653,0.5868 -0.38604,0 -0.51914,2.2998 -0.70089,12.1092 -0.1234,6.6601 -0.38477,13.8593 -0.58083,15.9983 -2.94549,32.1348 -12.84817,42.2299 -44.55725,45.4229 -5.63622,0.5676 -21.78389,1.049 -38.720021,1.1543 l -15.208723,0.095 z M 207.44626,989.92469 c 0.4119,-0.76964 -0.26541,-2.37643 -8.09754,-19.20973 -8.30124,-17.84153 -8.57549,-18.36984 -9.5359,-18.36984 -0.94993,0 -1.36197,0.73107 -10.46642,18.57029 -5.76911,11.30398 -9.3149,18.62452 -9.06186,18.70887 0.22864,0.0762 0.41571,0.36396 0.41571,0.63944 0,0.42562 2.72664,0.50087 18.14826,0.50087 h 18.14825 z"
       id="path1102"
       inkscape:connector-curvature="0"
       transform="scale(0.26458333)" />
    <path
       style="fill:#000000;fill-opacity:0;stroke:none;stroke-width:0.66813242;stroke-linecap:square;stroke-linejoin:round;stroke-miterlimit:4;stroke-dasharray:none;stroke-dashoffset:0;stroke-opacity:1;paint-order:fill markers stroke"
       d="m 70.954033,1100.5443 c 6.284971,-9.2264 6.198567,-22.9445 -0.201188,-31.9419 l -1.171495,-1.6471 17.767374,-0.2249 c 23.473016,-0.2971 28.545836,-0.8445 34.538566,-3.7269 6.30845,-3.0343 9.84879,-9.2682 11.30887,-19.913 0.97782,-7.1288 1.08811,-14.2559 1.08852,-70.33942 3.5e-4,-62.34219 0.0262,-63.35355 1.78517,-70.29152 2.70731,-10.67828 8.81467,-13.84527 28.53161,-14.79517 l 5.03813,-0.24272 v 13.66447 c 0,8.87394 0.12395,13.66447 0.35356,13.66447 0.19445,0 0.35355,0.23865 0.35355,0.53033 0,0.46486 2.35702,0.53033 19.09188,0.53033 16.73486,0 19.09189,-0.0655 19.09189,-0.53033 0,-0.29168 0.23864,-0.53033 0.53033,-0.53033 0.46222,0 0.53033,-1.74813 0.53033,-13.61181 V 887.527 l 5.92201,0.003 c 15.70528,0.008 22.59332,2.43369 25.72894,9.06184 1.31197,2.77327 1.88419,5.71829 2.34326,12.06007 0.31504,4.35192 0.53052,5.74524 0.88851,5.74524 0.25994,0 0.47261,0.23865 0.47261,0.53033 0,0.46501 2.40768,0.53033 19.54777,0.53033 H 284.042 l -1.48558,3.03426 c -2.18325,4.45924 -2.78625,7.21546 -2.77821,12.69887 0.005,3.24372 0.1885,5.27244 0.62447,6.89429 0.91843,3.41672 3.43025,8.37199 5.51134,10.87267 l 1.83818,2.20881 h -21.04931 c -17.92449,0 -21.04932,0.0743 -21.04932,0.50087 0,0.27547 -0.16735,0.55664 -0.37188,0.62482 -0.25786,0.086 -0.39336,18.768 -0.44194,60.929 -0.0788,68.3758 -0.26612,63.347 2.58123,69.2904 3.23263,6.7476 10.11668,11.5835 25.17722,17.6867 l 4.6984,1.904 -21.38998,0.015 c -21.43579,0.015 -26.86487,-0.2041 -31.64046,-1.2796 -7.37868,-1.6618 -11.40734,-5.5234 -13.22179,-12.6736 -1.12922,-4.4498 -1.45321,-8.9177 -1.45369,-20.0464 -9.3e-4,-21.1955 -0.43641,-40.5842 -0.91155,-40.5842 -0.24381,0 -0.49927,-0.1679 -0.56769,-0.3731 -0.084,-0.2522 -6.28688,-0.4425 -19.12134,-0.5869 -17.54972,-0.1974 -18.99695,-0.169 -18.99695,0.3732 0,0.3227 -0.21444,0.5868 -0.47653,0.5868 -0.38604,0 -0.51914,2.2998 -0.70089,12.1092 -0.1234,6.6601 -0.38477,13.8593 -0.58083,15.9983 -2.94549,32.1348 -12.84817,42.2299 -44.55725,45.4229 -5.63622,0.5676 -21.78389,1.049 -38.720021,1.1543 l -15.208723,0.095 z M 207.44626,989.92469 c 0.4119,-0.76964 -0.26541,-2.37643 -8.09754,-19.20973 -8.30124,-17.84153 -8.57549,-18.36984 -9.5359,-18.36984 -0.94993,0 -1.36197,0.73107 -10.46642,18.57029 -5.76911,11.30398 -9.3149,18.62452 -9.06186,18.70887 0.22864,0.0762 0.41571,0.36396 0.41571,0.63944 0,0.42562 2.72664,0.50087 18.14826,0.50087 h 18.14825 z"
       id="path1104"
       inkscape:connector-curvature="0"
       transform="scale(0.26458333)" />
    <path
       style="fill:#000000;fill-opacity:0;stroke:none;stroke-width:0.66813242;stroke-linecap:square;stroke-linejoin:round;stroke-miterlimit:4;stroke-dasharray:none;stroke-dashoffset:0;stroke-opacity:1;paint-order:fill markers stroke"
       d="m 71.218064,1100.1458 c 6.04603,-9.4514 5.851195,-22.6629 -0.465183,-31.5434 l -1.171459,-1.6471 19.004775,-0.2215 c 18.613733,-0.217 22.243043,-0.4256 27.313283,-1.5694 9.77404,-2.2049 14.56241,-7.4703 16.76367,-18.4337 1.36536,-6.8002 1.3795,-7.4322 1.61175,-72.05279 0.20472,-56.96012 0.28706,-63.65713 0.82377,-66.99837 1.47969,-9.21169 3.78339,-13.46199 8.69562,-16.0433 4.21773,-2.21635 10.32332,-3.35245 21.16072,-3.93748 l 4.33103,-0.2338 v 13.64282 c 0,11.89126 0.0681,13.64283 0.53033,13.64283 0.29168,0 0.53033,0.23865 0.53033,0.53033 0,0.46486 2.35702,0.53033 19.09188,0.53033 16.73486,0 19.09189,-0.0655 19.09189,-0.53033 0,-0.29168 0.23864,-0.53033 0.53033,-0.53033 0.46225,0 0.53033,-1.75411 0.53033,-13.66564 v -13.66564 l 7.513,0.21018 c 20.06703,0.56136 25.24449,4.34322 26.23893,19.16615 0.45066,6.71747 0.57871,7.60139 1.10121,7.60139 0.27621,0 0.50219,0.23865 0.50219,0.53033 0,0.46501 2.40768,0.53033 19.54777,0.53033 H 284.042 l -1.48558,3.03426 c -2.18325,4.45924 -2.78625,7.21546 -2.77821,12.69887 0.005,3.24372 0.1885,5.27244 0.62447,6.89429 0.87362,3.25003 3.3975,8.31334 5.30763,10.64798 l 1.62482,1.98592 -1.83728,0.22072 c -1.01051,0.12139 -10.38886,0.22209 -20.84078,0.22378 -16.15803,0.002 -19.0035,0.0781 -19.0035,0.50395 0,0.27547 -0.19887,0.56715 -0.44194,0.64818 -0.35128,0.11709 -0.44194,12.65328 -0.44194,61.10584 0,57.932 0.0323,61.0989 0.65056,63.7869 2.28149,9.9191 8.75743,15.5098 26.39627,22.7881 l 5.12653,2.1153 -21.21321,0.011 c -12.08973,0.01 -22.88473,-0.1477 -25.09972,-0.3577 -14.31171,-1.3572 -19.18903,-6.0427 -20.67077,-19.8579 -0.21527,-2.0071 -0.3691,-12.8012 -0.37034,-25.9862 -0.002,-24.0478 -0.14505,-28.3866 -0.93417,-28.3866 -0.26286,0 -0.47793,-0.2386 -0.47793,-0.5303 0,-0.4648 -2.35702,-0.5303 -19.09188,-0.5303 -16.73486,0 -19.09188,0.065 -19.09188,0.5303 0,0.2917 -0.23865,0.5303 -0.53033,0.5303 -0.45011,0 -0.53105,0.8958 -0.53505,5.9221 -0.0113,14.1768 -0.97457,27.0413 -2.64119,35.2724 -3.83068,18.9191 -13.20946,27.5734 -33.68948,31.0873 -8.99587,1.5434 -25.2507,2.2912 -50.192415,2.3091 l -12.458366,0.01 z M 207.44626,989.92469 c 0.4119,-0.76964 -0.26541,-2.37643 -8.09754,-19.20973 -8.30124,-17.84153 -8.57549,-18.36984 -9.5359,-18.36984 -0.94993,0 -1.36197,0.73107 -10.46642,18.57029 -5.76911,11.30398 -9.3149,18.62452 -9.06186,18.70887 0.22864,0.0762 0.41571,0.36396 0.41571,0.63944 0,0.42562 2.72664,0.50087 18.14826,0.50087 h 18.14825 z"
       id="path1107"
       inkscape:connector-curvature="0"
       transform="scale(0.26458333)" />
    <path
       style="fill:#000000;fill-opacity:0;stroke:none;stroke-width:0.66813242;stroke-linecap:square;stroke-linejoin:round;stroke-miterlimit:4;stroke-dasharray:none;stroke-dashoffset:0;stroke-opacity:1;paint-order:fill markers stroke"
       d="m 71.218064,1100.1458 c 6.04603,-9.4514 5.851195,-22.6629 -0.465183,-31.5434 l -1.171459,-1.6471 19.004775,-0.2215 c 18.613733,-0.217 22.243043,-0.4256 27.313283,-1.5694 9.77404,-2.2049 14.56241,-7.4703 16.76367,-18.4337 1.36536,-6.8002 1.3795,-7.4322 1.61175,-72.05279 0.20472,-56.96012 0.28706,-63.65713 0.82377,-66.99837 1.47969,-9.21169 3.78339,-13.46199 8.69562,-16.0433 4.21773,-2.21635 10.32332,-3.35245 21.16072,-3.93748 l 4.33103,-0.2338 v 13.64282 c 0,11.89126 0.0681,13.64283 0.53033,13.64283 0.29168,0 0.53033,0.23865 0.53033,0.53033 0,0.46486 2.35702,0.53033 19.09188,0.53033 16.73486,0 19.09189,-0.0655 19.09189,-0.53033 0,-0.29168 0.23864,-0.53033 0.53033,-0.53033 0.46225,0 0.53033,-1.75411 0.53033,-13.66564 v -13.66564 l 7.513,0.21018 c 20.06703,0.56136 25.24449,4.34322 26.23893,19.16615 0.45066,6.71747 0.57871,7.60139 1.10121,7.60139 0.27621,0 0.50219,0.23865 0.50219,0.53033 0,0.46501 2.40768,0.53033 19.54777,0.53033 H 284.042 l -1.48558,3.03426 c -2.18325,4.45924 -2.78625,7.21546 -2.77821,12.69887 0.005,3.24372 0.1885,5.27244 0.62447,6.89429 0.87362,3.25003 3.3975,8.31334 5.30763,10.64798 l 1.62482,1.98592 -1.83728,0.22072 c -1.01051,0.12139 -10.38886,0.22209 -20.84078,0.22378 -16.15803,0.002 -19.0035,0.0781 -19.0035,0.50395 0,0.27547 -0.19887,0.56715 -0.44194,0.64818 -0.35128,0.11709 -0.44194,12.65328 -0.44194,61.10584 0,57.932 0.0323,61.0989 0.65056,63.7869 2.28149,9.9191 8.75743,15.5098 26.39627,22.7881 l 5.12653,2.1153 -21.21321,0.011 c -12.08973,0.01 -22.88473,-0.1477 -25.09972,-0.3577 -14.31171,-1.3572 -19.18903,-6.0427 -20.67077,-19.8579 -0.21527,-2.0071 -0.3691,-12.8012 -0.37034,-25.9862 -0.002,-24.0478 -0.14505,-28.3866 -0.93417,-28.3866 -0.26286,0 -0.47793,-0.2386 -0.47793,-0.5303 0,-0.4648 -2.35702,-0.5303 -19.09188,-0.5303 -16.73486,0 -19.09188,0.065 -19.09188,0.5303 0,0.2917 -0.23865,0.5303 -0.53033,0.5303 -0.45011,0 -0.53105,0.8958 -0.53505,5.9221 -0.0113,14.1768 -0.97457,27.0413 -2.64119,35.2724 -3.83068,18.9191 -13.20946,27.5734 -33.68948,31.0873 -8.99587,1.5434 -25.2507,2.2912 -50.192415,2.3091 l -12.458366,0.01 z M 207.44626,989.92469 c 0.4119,-0.76964 -0.26541,-2.37643 -8.09754,-19.20973 -8.30124,-17.84153 -8.57549,-18.36984 -9.5359,-18.36984 -0.94993,0 -1.36197,0.73107 -10.46642,18.57029 -5.76911,11.30398 -9.3149,18.62452 -9.06186,18.70887 0.22864,0.0762 0.41571,0.36396 0.41571,0.63944 0,0.42562 2.72664,0.50087 18.14826,0.50087 h 18.14825 z"
       id="path1109"
       inkscape:connector-curvature="0"
       transform="scale(0.26458333)" />
    <path
       style="fill:#000000;fill-opacity:0;stroke:none;stroke-width:0.66813242;stroke-linecap:square;stroke-linejoin:round;stroke-miterlimit:4;stroke-dasharray:none;stroke-dashoffset:0;stroke-opacity:1;paint-order:fill markers stroke"
       d="m 71.218064,1100.1458 c 6.04603,-9.4514 5.851195,-22.6629 -0.465183,-31.5434 l -1.171459,-1.6471 19.004775,-0.2215 c 18.613733,-0.217 22.243043,-0.4256 27.313283,-1.5694 9.77404,-2.2049 14.56241,-7.4703 16.76367,-18.4337 1.36536,-6.8002 1.3795,-7.4322 1.61175,-72.05279 0.20472,-56.96012 0.28706,-63.65713 0.82377,-66.99837 1.47969,-9.21169 3.78339,-13.46199 8.69562,-16.0433 4.21773,-2.21635 10.32332,-3.35245 21.16072,-3.93748 l 4.33103,-0.2338 v 13.64282 c 0,11.89126 0.0681,13.64283 0.53033,13.64283 0.29168,0 0.53033,0.23865 0.53033,0.53033 0,0.46486 2.35702,0.53033 19.09188,0.53033 16.73486,0 19.09189,-0.0655 19.09189,-0.53033 0,-0.29168 0.23864,-0.53033 0.53033,-0.53033 0.46225,0 0.53033,-1.75411 0.53033,-13.66564 v -13.66564 l 7.513,0.21018 c 20.06703,0.56136 25.24449,4.34322 26.23893,19.16615 0.45066,6.71747 0.57871,7.60139 1.10121,7.60139 0.27621,0 0.50219,0.23865 0.50219,0.53033 0,0.46501 2.40768,0.53033 19.54777,0.53033 H 284.042 l -1.48558,3.03426 c -2.18325,4.45924 -2.78625,7.21546 -2.77821,12.69887 0.005,3.24372 0.1885,5.27244 0.62447,6.89429 0.87362,3.25003 3.3975,8.31334 5.30763,10.64798 l 1.62482,1.98592 -1.83728,0.22072 c -1.01051,0.12139 -10.38886,0.22209 -20.84078,0.22378 -16.15803,0.002 -19.0035,0.0781 -19.0035,0.50395 0,0.27547 -0.19887,0.56715 -0.44194,0.64818 -0.35128,0.11709 -0.44194,12.65328 -0.44194,61.10584 0,57.932 0.0323,61.0989 0.65056,63.7869 2.28149,9.9191 8.75743,15.5098 26.39627,22.7881 l 5.12653,2.1153 -21.21321,0.011 c -12.08973,0.01 -22.88473,-0.1477 -25.09972,-0.3577 -14.31171,-1.3572 -19.18903,-6.0427 -20.67077,-19.8579 -0.21527,-2.0071 -0.3691,-12.8012 -0.37034,-25.9862 -0.002,-24.0478 -0.14505,-28.3866 -0.93417,-28.3866 -0.26286,0 -0.47793,-0.2386 -0.47793,-0.5303 0,-0.4648 -2.35702,-0.5303 -19.09188,-0.5303 -16.73486,0 -19.09188,0.065 -19.09188,0.5303 0,0.2917 -0.23865,0.5303 -0.53033,0.5303 -0.45011,0 -0.53105,0.8958 -0.53505,5.9221 -0.0113,14.1768 -0.97457,27.0413 -2.64119,35.2724 -3.83068,18.9191 -13.20946,27.5734 -33.68948,31.0873 -8.99587,1.5434 -25.2507,2.2912 -50.192415,2.3091 l -12.458366,0.01 z M 207.44626,989.92469 c 0.4119,-0.76964 -0.26541,-2.37643 -8.09754,-19.20973 -8.30124,-17.84153 -8.57549,-18.36984 -9.5359,-18.36984 -0.94993,0 -1.36197,0.73107 -10.46642,18.57029 -5.76911,11.30398 -9.3149,18.62452 -9.06186,18.70887 0.22864,0.0762 0.41571,0.36396 0.41571,0.63944 0,0.42562 2.72664,0.50087 18.14826,0.50087 h 18.14825 z"
       id="path1111"
       inkscape:connector-curvature="0"
       transform="scale(0.26458333)" />
    <path
       style="fill:#000000;fill-opacity:0;stroke:none;stroke-width:0.94488192;stroke-linecap:square;stroke-linejoin:round;stroke-miterlimit:4;stroke-dasharray:none;stroke-dashoffset:0;stroke-opacity:1;paint-order:fill markers stroke"
       d="m 70.5953,1101.3177 c 1.229219,-1.4811 3.638732,-7.0185 4.330142,-9.9513 0.949117,-4.0259 0.949117,-9.2858 0,-13.3117 -0.767293,-3.2546 -3.211124,-8.678 -4.604891,-10.2191 -0.751835,-0.8314 -0.08277,-0.8756 13.411181,-0.8853 16.155764,-0.012 27.437238,-0.6165 32.228298,-1.7276 9.89215,-2.2941 14.97884,-8.1501 16.96304,-19.5283 1.49707,-8.5848 1.74577,-19.4561 1.75543,-76.73384 0.008,-48.86955 0.12489,-58.45995 0.75854,-62.36687 1.5718,-9.69145 4.5274,-13.83584 11.66241,-16.35322 2.6649,-0.94023 11.36002,-2.15484 17.45978,-2.43894 l 4.625,-0.21542 v 13.47294 c 0,11.00988 0.13058,13.60352 0.71428,14.18723 1.06286,1.06285 38.00858,1.06285 39.07143,0 0.58406,-0.58406 0.71429,-3.19579 0.71429,-14.32557 v -13.61128 l 7.83012,0.34931 c 15.9193,0.71018 21.31428,3.03432 24.05645,10.36343 1.01821,2.72141 2.10943,9.87685 2.11202,13.84911 0.002,3.74387 -0.89647,3.58928 20.87097,3.58928 h 19.44098 l -1.62828,3.35308 c -4.42823,9.1189 -3.38858,20.4604 2.66037,29.02192 l 2.20789,3.125 h -20.56097 c -16.51449,0 -20.69279,0.13181 -21.23071,0.66973 -0.55092,0.55092 -0.69147,11.43878 -0.7923,61.37501 -0.11081,54.8812 -0.0437,61.0295 0.69928,64.0847 2.53006,10.4036 8.71417,15.6844 27.33418,23.3414 l 3.75,1.5421 -24.75,-0.1663 c -21.33278,-0.1433 -25.14906,-0.282 -27.64025,-1.0041 -7.90504,-2.2914 -11.09444,-5.5428 -13.20123,-13.458 -0.71938,-2.7027 -0.86091,-6.9912 -1.02721,-31.1261 -0.184,-26.703 -0.23653,-28.0321 -1.14119,-28.875 -0.87177,-0.8121 -2.46618,-0.8834 -19.75493,-0.8834 -14.62888,0 -18.94901,0.1424 -19.44761,0.641 -0.47562,0.4756 -0.71772,4.2488 -0.93837,14.625 -0.43668,20.5344 -2.08196,30.4073 -6.57981,39.484 -2.72924,5.5075 -5.26314,8.5048 -9.65849,11.4244 -10.85001,7.2073 -25.46763,9.31 -64.797136,9.3208 -14.150911,0 -17.335697,-0.1164 -16.902704,-0.6381 z M 207.48717,990.08556 c 0.44192,-0.71148 -1.05369,-4.31289 -8.00305,-19.27131 -7.9528,-17.11829 -8.62928,-18.38614 -9.73755,-18.25 -1.02519,0.12594 -2.48994,2.69488 -10.521,18.45206 -7.35989,14.44032 -9.22088,18.47874 -8.81323,19.125 0.46317,0.73427 2.38464,0.81925 18.52406,0.81925 16.60941,0 18.04947,-0.0679 18.55077,-0.875 z"
       id="path1113"
       inkscape:connector-curvature="0"
       transform="scale(0.26458333)" />
    <path
       style="fill:#000000;fill-opacity:0;stroke:none;stroke-width:0.94488192;stroke-linecap:square;stroke-linejoin:round;stroke-miterlimit:4;stroke-dasharray:none;stroke-dashoffset:0;stroke-opacity:1;paint-order:fill markers stroke"
       d="m 70.5953,1101.3177 c 1.229219,-1.4811 3.638732,-7.0185 4.330142,-9.9513 0.949117,-4.0259 0.949117,-9.2858 0,-13.3117 -0.767293,-3.2546 -3.211124,-8.678 -4.604891,-10.2191 -0.751835,-0.8314 -0.08277,-0.8756 13.411181,-0.8853 16.155764,-0.012 27.437238,-0.6165 32.228298,-1.7276 9.89215,-2.2941 14.97884,-8.1501 16.96304,-19.5283 1.49707,-8.5848 1.74577,-19.4561 1.75543,-76.73384 0.008,-48.86955 0.12489,-58.45995 0.75854,-62.36687 1.5718,-9.69145 4.5274,-13.83584 11.66241,-16.35322 2.6649,-0.94023 11.36002,-2.15484 17.45978,-2.43894 l 4.625,-0.21542 v 13.47294 c 0,11.00988 0.13058,13.60352 0.71428,14.18723 1.06286,1.06285 38.00858,1.06285 39.07143,0 0.58406,-0.58406 0.71429,-3.19579 0.71429,-14.32557 v -13.61128 l 7.83012,0.34931 c 15.9193,0.71018 21.31428,3.03432 24.05645,10.36343 1.01821,2.72141 2.10943,9.87685 2.11202,13.84911 0.002,3.74387 -0.89647,3.58928 20.87097,3.58928 h 19.44098 l -1.62828,3.35308 c -4.42823,9.1189 -3.38858,20.4604 2.66037,29.02192 l 2.20789,3.125 h -20.56097 c -16.51449,0 -20.69279,0.13181 -21.23071,0.66973 -0.55092,0.55092 -0.69147,11.43878 -0.7923,61.37501 -0.11081,54.8812 -0.0437,61.0295 0.69928,64.0847 2.53006,10.4036 8.71417,15.6844 27.33418,23.3414 l 3.75,1.5421 -24.75,-0.1663 c -21.33278,-0.1433 -25.14906,-0.282 -27.64025,-1.0041 -7.90504,-2.2914 -11.09444,-5.5428 -13.20123,-13.458 -0.71938,-2.7027 -0.86091,-6.9912 -1.02721,-31.1261 -0.184,-26.703 -0.23653,-28.0321 -1.14119,-28.875 -0.87177,-0.8121 -2.46618,-0.8834 -19.75493,-0.8834 -14.62888,0 -18.94901,0.1424 -19.44761,0.641 -0.47562,0.4756 -0.71772,4.2488 -0.93837,14.625 -0.43668,20.5344 -2.08196,30.4073 -6.57981,39.484 -2.72924,5.5075 -5.26314,8.5048 -9.65849,11.4244 -10.85001,7.2073 -25.46763,9.31 -64.797136,9.3208 -14.150911,0 -17.335697,-0.1164 -16.902704,-0.6381 z M 207.48717,990.08556 c 0.44192,-0.71148 -1.05369,-4.31289 -8.00305,-19.27131 -7.9528,-17.11829 -8.62928,-18.38614 -9.73755,-18.25 -1.02519,0.12594 -2.48994,2.69488 -10.521,18.45206 -7.35989,14.44032 -9.22088,18.47874 -8.81323,19.125 0.46317,0.73427 2.38464,0.81925 18.52406,0.81925 16.60941,0 18.04947,-0.0679 18.55077,-0.875 z"
       id="path1115"
       inkscape:connector-curvature="0"
       transform="scale(0.26458333)" />
    <path
       style="fill:#000000;fill-opacity:0;stroke:none;stroke-width:0.66813242;stroke-linecap:square;stroke-linejoin:round;stroke-miterlimit:4;stroke-dasharray:none;stroke-dashoffset:0;stroke-opacity:1;paint-order:fill markers stroke"
       d="m 71.264961,1100.0275 c 2.793157,-4.2526 4.385943,-9.8123 4.385943,-15.3092 0,-5.5318 -1.593032,-11.0569 -4.436014,-15.3855 -0.865917,-1.3183 -1.574394,-2.4384 -1.574394,-2.4889 0,-0.051 8.869771,-0.163 19.710601,-0.25 20.962273,-0.1682 23.381653,-0.3398 28.902993,-2.0494 3.46937,-1.0743 5.64241,-2.2484 7.7044,-4.1627 4.84353,-4.4967 7.00128,-11.0117 8.02831,-24.24 0.21639,-2.7872 0.35413,-27.2476 0.35439,-62.93255 3.8e-4,-50.54568 0.0742,-59.01339 0.55071,-63.14632 1.48434,-12.87492 4.44792,-17.47234 12.95355,-20.09499 2.96916,-0.91552 8.48506,-1.72741 13.54215,-1.99329 2.139,-0.11245 4.80391,-0.28766 5.92202,-0.38936 l 2.03293,-0.18489 v 13.62936 c 0,11.87929 0.0681,13.62936 0.53033,13.62936 0.29168,0 0.53033,0.23865 0.53033,0.53033 0,0.46486 2.35703,0.53033 19.09189,0.53033 16.73485,0 19.09188,-0.0655 19.09188,-0.53033 0,-0.29168 0.23865,-0.53033 0.53033,-0.53033 0.46226,0 0.53033,-1.75423 0.53033,-13.66675 v -13.66675 l 7.01857,0.24132 c 21.39609,0.73568 26.00936,4.43969 26.8167,21.53124 0.18491,3.91459 0.31347,4.63192 0.96632,5.39169 l 0.75304,0.87636 h 19.44812 19.44812 l -1.48558,3.03426 c -2.20875,4.51133 -2.7875,7.2001 -2.77142,12.87564 0.01,3.44094 0.18891,5.41432 0.64199,7.07107 0.89191,3.26144 3.06064,7.59848 5.13327,10.26557 l 1.77615,2.28557 -20.84142,0.0912 c -18.20003,0.0796 -20.84142,0.15804 -20.84142,0.61871 0,0.29014 -0.23398,0.52753 -0.51996,0.52753 -0.455,0 -0.5323,7.05644 -0.61872,56.48012 -0.0543,31.0641 0.009,58.8215 0.14165,61.683 0.68445,14.8129 5.99916,20.8061 25.80345,29.0978 2.59341,1.0858 5.03349,2.12 5.4224,2.2982 1.11466,0.5108 -47.27344,0.193 -49.67425,-0.3262 -10.03931,-2.1712 -13.49202,-5.5454 -15.77623,-15.4175 -0.56768,-2.4535 -0.61835,-4.8529 -1.15899,-54.8846 -0.0287,-2.6556 -0.13504,-3.2704 -0.56567,-3.2704 -0.29169,0 -0.53033,-0.2133 -0.53033,-0.4741 0,-0.596 -9.7267,-0.9401 -26.57352,-0.9401 -10.08452,0 -11.61025,0.07 -11.61025,0.5303 0,0.2917 -0.21682,0.5304 -0.48181,0.5304 -0.39058,0 -0.52693,1.9916 -0.72007,10.5182 -0.39326,17.3606 -1.27971,26.3201 -3.39998,34.3646 -1.91815,7.2776 -4.33662,12.0017 -8.30284,16.2184 -5.18103,5.5082 -11.92276,8.7738 -22.30774,10.8056 -9.42687,1.8443 -15.98516,2.2988 -36.382123,2.5214 -8.944901,0.098 -19.064931,0.2449 -22.488957,0.3274 l -6.225502,0.15 z M 207.44616,990.05208 c 0.42436,-0.91348 -0.0404,-2.02367 -8.10181,-19.35429 -8.28808,-17.81785 -8.58233,-18.38523 -9.53483,-18.38523 -0.94199,0 -1.37279,0.76493 -10.36809,18.40958 -8.81851,17.29786 -9.35877,18.46662 -8.94657,19.35428 l 0.43868,0.94472 h 18.03123 18.03122 z"
       id="path1117"
       inkscape:connector-curvature="0"
       transform="scale(0.26458333)" />
    <path
       style="fill:#000000;fill-opacity:0;stroke:none;stroke-width:0.66813242;stroke-linecap:square;stroke-linejoin:round;stroke-miterlimit:4;stroke-dasharray:none;stroke-dashoffset:0;stroke-opacity:1;paint-order:fill markers stroke"
       d="m 71.264961,1100.0275 c 2.793157,-4.2526 4.385943,-9.8123 4.385943,-15.3092 0,-5.5318 -1.593032,-11.0569 -4.436014,-15.3855 -0.865917,-1.3183 -1.574394,-2.4384 -1.574394,-2.4889 0,-0.051 8.869771,-0.163 19.710601,-0.25 20.962273,-0.1682 23.381653,-0.3398 28.902993,-2.0494 3.46937,-1.0743 5.64241,-2.2484 7.7044,-4.1627 4.84353,-4.4967 7.00128,-11.0117 8.02831,-24.24 0.21639,-2.7872 0.35413,-27.2476 0.35439,-62.93255 3.8e-4,-50.54568 0.0742,-59.01339 0.55071,-63.14632 1.48434,-12.87492 4.44792,-17.47234 12.95355,-20.09499 2.96916,-0.91552 8.48506,-1.72741 13.54215,-1.99329 2.139,-0.11245 4.80391,-0.28766 5.92202,-0.38936 l 2.03293,-0.18489 v 13.62936 c 0,11.87929 0.0681,13.62936 0.53033,13.62936 0.29168,0 0.53033,0.23865 0.53033,0.53033 0,0.46486 2.35703,0.53033 19.09189,0.53033 16.73485,0 19.09188,-0.0655 19.09188,-0.53033 0,-0.29168 0.23865,-0.53033 0.53033,-0.53033 0.46226,0 0.53033,-1.75423 0.53033,-13.66675 v -13.66675 l 7.01857,0.24132 c 21.39609,0.73568 26.00936,4.43969 26.8167,21.53124 0.18491,3.91459 0.31347,4.63192 0.96632,5.39169 l 0.75304,0.87636 h 19.44812 19.44812 l -1.48558,3.03426 c -2.20875,4.51133 -2.7875,7.2001 -2.77142,12.87564 0.01,3.44094 0.18891,5.41432 0.64199,7.07107 0.89191,3.26144 3.06064,7.59848 5.13327,10.26557 l 1.77615,2.28557 -20.84142,0.0912 c -18.20003,0.0796 -20.84142,0.15804 -20.84142,0.61871 0,0.29014 -0.23398,0.52753 -0.51996,0.52753 -0.455,0 -0.5323,7.05644 -0.61872,56.48012 -0.0543,31.0641 0.009,58.8215 0.14165,61.683 0.68445,14.8129 5.99916,20.8061 25.80345,29.0978 2.59341,1.0858 5.03349,2.12 5.4224,2.2982 1.11466,0.5108 -47.27344,0.193 -49.67425,-0.3262 -10.03931,-2.1712 -13.49202,-5.5454 -15.77623,-15.4175 -0.56768,-2.4535 -0.61835,-4.8529 -1.15899,-54.8846 -0.0287,-2.6556 -0.13504,-3.2704 -0.56567,-3.2704 -0.29169,0 -0.53033,-0.2133 -0.53033,-0.4741 0,-0.596 -9.7267,-0.9401 -26.57352,-0.9401 -10.08452,0 -11.61025,0.07 -11.61025,0.5303 0,0.2917 -0.21682,0.5304 -0.48181,0.5304 -0.39058,0 -0.52693,1.9916 -0.72007,10.5182 -0.39326,17.3606 -1.27971,26.3201 -3.39998,34.3646 -1.91815,7.2776 -4.33662,12.0017 -8.30284,16.2184 -5.18103,5.5082 -11.92276,8.7738 -22.30774,10.8056 -9.42687,1.8443 -15.98516,2.2988 -36.382123,2.5214 -8.944901,0.098 -19.064931,0.2449 -22.488957,0.3274 l -6.225502,0.15 z M 207.44616,990.05208 c 0.42436,-0.91348 -0.0404,-2.02367 -8.10181,-19.35429 -8.28808,-17.81785 -8.58233,-18.38523 -9.53483,-18.38523 -0.94199,0 -1.37279,0.76493 -10.36809,18.40958 -8.81851,17.29786 -9.35877,18.46662 -8.94657,19.35428 l 0.43868,0.94472 h 18.03123 18.03122 z"
       id="path1119"
       inkscape:connector-curvature="0"
       transform="scale(0.26458333)" />
    <path
       style="fill:#000000;fill-opacity:0;stroke:none;stroke-width:0.66813242;stroke-linecap:square;stroke-linejoin:round;stroke-miterlimit:4;stroke-dasharray:none;stroke-dashoffset:0;stroke-opacity:1;paint-order:fill markers stroke"
       d="m 71.264961,1100.0275 c 2.793157,-4.2526 4.385943,-9.8123 4.385943,-15.3092 0,-5.5318 -1.593032,-11.0569 -4.436014,-15.3855 -0.865917,-1.3183 -1.574394,-2.4384 -1.574394,-2.4889 0,-0.051 8.869771,-0.163 19.710601,-0.25 20.962273,-0.1682 23.381653,-0.3398 28.902993,-2.0494 3.46937,-1.0743 5.64241,-2.2484 7.7044,-4.1627 4.84353,-4.4967 7.00128,-11.0117 8.02831,-24.24 0.21639,-2.7872 0.35413,-27.2476 0.35439,-62.93255 3.8e-4,-50.54568 0.0742,-59.01339 0.55071,-63.14632 1.48434,-12.87492 4.44792,-17.47234 12.95355,-20.09499 2.96916,-0.91552 8.48506,-1.72741 13.54215,-1.99329 2.139,-0.11245 4.80391,-0.28766 5.92202,-0.38936 l 2.03293,-0.18489 v 13.62936 c 0,11.87929 0.0681,13.62936 0.53033,13.62936 0.29168,0 0.53033,0.23865 0.53033,0.53033 0,0.46486 2.35703,0.53033 19.09189,0.53033 16.73485,0 19.09188,-0.0655 19.09188,-0.53033 0,-0.29168 0.23865,-0.53033 0.53033,-0.53033 0.46226,0 0.53033,-1.75423 0.53033,-13.66675 v -13.66675 l 7.01857,0.24132 c 21.39609,0.73568 26.00936,4.43969 26.8167,21.53124 0.18491,3.91459 0.31347,4.63192 0.96632,5.39169 l 0.75304,0.87636 h 19.44812 19.44812 l -1.48558,3.03426 c -2.20875,4.51133 -2.7875,7.2001 -2.77142,12.87564 0.01,3.44094 0.18891,5.41432 0.64199,7.07107 0.89191,3.26144 3.06064,7.59848 5.13327,10.26557 l 1.77615,2.28557 -20.84142,0.0912 c -18.20003,0.0796 -20.84142,0.15804 -20.84142,0.61871 0,0.29014 -0.23398,0.52753 -0.51996,0.52753 -0.455,0 -0.5323,7.05644 -0.61872,56.48012 -0.0543,31.0641 0.009,58.8215 0.14165,61.683 0.68445,14.8129 5.99916,20.8061 25.80345,29.0978 2.59341,1.0858 5.03349,2.12 5.4224,2.2982 1.11466,0.5108 -47.27344,0.193 -49.67425,-0.3262 -10.03931,-2.1712 -13.49202,-5.5454 -15.77623,-15.4175 -0.56768,-2.4535 -0.61835,-4.8529 -1.15899,-54.8846 -0.0287,-2.6556 -0.13504,-3.2704 -0.56567,-3.2704 -0.29169,0 -0.53033,-0.2133 -0.53033,-0.4741 0,-0.596 -9.7267,-0.9401 -26.57352,-0.9401 -10.08452,0 -11.61025,0.07 -11.61025,0.5303 0,0.2917 -0.21682,0.5304 -0.48181,0.5304 -0.39058,0 -0.52693,1.9916 -0.72007,10.5182 -0.39326,17.3606 -1.27971,26.3201 -3.39998,34.3646 -1.91815,7.2776 -4.33662,12.0017 -8.30284,16.2184 -5.18103,5.5082 -11.92276,8.7738 -22.30774,10.8056 -9.42687,1.8443 -15.98516,2.2988 -36.382123,2.5214 -8.944901,0.098 -19.064931,0.2449 -22.488957,0.3274 l -6.225502,0.15 z M 207.44616,990.05208 c 0.42436,-0.91348 -0.0404,-2.02367 -8.10181,-19.35429 -8.28808,-17.81785 -8.58233,-18.38523 -9.53483,-18.38523 -0.94199,0 -1.37279,0.76493 -10.36809,18.40958 -8.81851,17.29786 -9.35877,18.46662 -8.94657,19.35428 l 0.43868,0.94472 h 18.03123 18.03122 z"
       id="path1121"
       inkscape:connector-curvature="0"
       transform="scale(0.26458333)" />
    <path
       style="fill:#000000;fill-opacity:0;stroke:none;stroke-width:0.66813242;stroke-linecap:square;stroke-linejoin:round;stroke-miterlimit:4;stroke-dasharray:none;stroke-dashoffset:0;stroke-opacity:1;paint-order:fill markers stroke"
       d="m 71.264961,1100.0275 c 2.793157,-4.2526 4.385943,-9.8123 4.385943,-15.3092 0,-5.5318 -1.593032,-11.0569 -4.436014,-15.3855 -0.865917,-1.3183 -1.574394,-2.4384 -1.574394,-2.4889 0,-0.051 8.869771,-0.163 19.710601,-0.25 20.962273,-0.1682 23.381653,-0.3398 28.902993,-2.0494 3.46937,-1.0743 5.64241,-2.2484 7.7044,-4.1627 4.84353,-4.4967 7.00128,-11.0117 8.02831,-24.24 0.21639,-2.7872 0.35413,-27.2476 0.35439,-62.93255 3.8e-4,-50.54568 0.0742,-59.01339 0.55071,-63.14632 1.48434,-12.87492 4.44792,-17.47234 12.95355,-20.09499 2.96916,-0.91552 8.48506,-1.72741 13.54215,-1.99329 2.139,-0.11245 4.80391,-0.28766 5.92202,-0.38936 l 2.03293,-0.18489 v 13.62936 c 0,11.87929 0.0681,13.62936 0.53033,13.62936 0.29168,0 0.53033,0.23865 0.53033,0.53033 0,0.46486 2.35703,0.53033 19.09189,0.53033 16.73485,0 19.09188,-0.0655 19.09188,-0.53033 0,-0.29168 0.23865,-0.53033 0.53033,-0.53033 0.46226,0 0.53033,-1.75423 0.53033,-13.66675 v -13.66675 l 7.01857,0.24132 c 21.39609,0.73568 26.00936,4.43969 26.8167,21.53124 0.18491,3.91459 0.31347,4.63192 0.96632,5.39169 l 0.75304,0.87636 h 19.44812 19.44812 l -1.48558,3.03426 c -2.20875,4.51133 -2.7875,7.2001 -2.77142,12.87564 0.01,3.44094 0.18891,5.41432 0.64199,7.07107 0.89191,3.26144 3.06064,7.59848 5.13327,10.26557 l 1.77615,2.28557 -20.84142,0.0912 c -18.20003,0.0796 -20.84142,0.15804 -20.84142,0.61871 0,0.29014 -0.23398,0.52753 -0.51996,0.52753 -0.455,0 -0.5323,7.05644 -0.61872,56.48012 -0.0543,31.0641 0.009,58.8215 0.14165,61.683 0.68445,14.8129 5.99916,20.8061 25.80345,29.0978 2.59341,1.0858 5.03349,2.12 5.4224,2.2982 1.11466,0.5108 -47.27344,0.193 -49.67425,-0.3262 -10.03931,-2.1712 -13.49202,-5.5454 -15.77623,-15.4175 -0.56768,-2.4535 -0.61835,-4.8529 -1.15899,-54.8846 -0.0287,-2.6556 -0.13504,-3.2704 -0.56567,-3.2704 -0.29169,0 -0.53033,-0.2133 -0.53033,-0.4741 0,-0.596 -9.7267,-0.9401 -26.57352,-0.9401 -10.08452,0 -11.61025,0.07 -11.61025,0.5303 0,0.2917 -0.21682,0.5304 -0.48181,0.5304 -0.39058,0 -0.52693,1.9916 -0.72007,10.5182 -0.39326,17.3606 -1.27971,26.3201 -3.39998,34.3646 -1.91815,7.2776 -4.33662,12.0017 -8.30284,16.2184 -5.18103,5.5082 -11.92276,8.7738 -22.30774,10.8056 -9.42687,1.8443 -15.98516,2.2988 -36.382123,2.5214 -8.944901,0.098 -19.064931,0.2449 -22.488957,0.3274 l -6.225502,0.15 z M 207.44616,990.05208 c 0.42436,-0.91348 -0.0404,-2.02367 -8.10181,-19.35429 -8.28808,-17.81785 -8.58233,-18.38523 -9.53483,-18.38523 -0.94199,0 -1.37279,0.76493 -10.36809,18.40958 -8.81851,17.29786 -9.35877,18.46662 -8.94657,19.35428 l 0.43868,0.94472 h 18.03123 18.03122 z"
       id="path1123"
       inkscape:connector-curvature="0"
       transform="scale(0.26458333)" />
    <path
       style="fill:#000000;fill-opacity:0;stroke:none;stroke-width:0.66813242;stroke-linecap:square;stroke-linejoin:round;stroke-miterlimit:4;stroke-dasharray:none;stroke-dashoffset:0;stroke-opacity:1;paint-order:fill markers stroke"
       d="m 71.264961,1100.0275 c 2.793157,-4.2526 4.385943,-9.8123 4.385943,-15.3092 0,-5.5318 -1.593032,-11.0569 -4.436014,-15.3855 -0.865917,-1.3183 -1.574394,-2.4384 -1.574394,-2.4889 0,-0.051 8.869771,-0.163 19.710601,-0.25 20.962273,-0.1682 23.381653,-0.3398 28.902993,-2.0494 3.46937,-1.0743 5.64241,-2.2484 7.7044,-4.1627 4.84353,-4.4967 7.00128,-11.0117 8.02831,-24.24 0.21639,-2.7872 0.35413,-27.2476 0.35439,-62.93255 3.8e-4,-50.54568 0.0742,-59.01339 0.55071,-63.14632 1.48434,-12.87492 4.44792,-17.47234 12.95355,-20.09499 2.96916,-0.91552 8.48506,-1.72741 13.54215,-1.99329 2.139,-0.11245 4.80391,-0.28766 5.92202,-0.38936 l 2.03293,-0.18489 v 13.62936 c 0,11.87929 0.0681,13.62936 0.53033,13.62936 0.29168,0 0.53033,0.23865 0.53033,0.53033 0,0.46486 2.35703,0.53033 19.09189,0.53033 16.73485,0 19.09188,-0.0655 19.09188,-0.53033 0,-0.29168 0.23865,-0.53033 0.53033,-0.53033 0.46226,0 0.53033,-1.75423 0.53033,-13.66675 v -13.66675 l 7.01857,0.24132 c 21.39609,0.73568 26.00936,4.43969 26.8167,21.53124 0.18491,3.91459 0.31347,4.63192 0.96632,5.39169 l 0.75304,0.87636 h 19.44812 19.44812 l -1.48558,3.03426 c -2.20875,4.51133 -2.7875,7.2001 -2.77142,12.87564 0.01,3.44094 0.18891,5.41432 0.64199,7.07107 0.89191,3.26144 3.06064,7.59848 5.13327,10.26557 l 1.77615,2.28557 -20.84142,0.0912 c -18.20003,0.0796 -20.84142,0.15804 -20.84142,0.61871 0,0.29014 -0.23398,0.52753 -0.51996,0.52753 -0.455,0 -0.5323,7.05644 -0.61872,56.48012 -0.0543,31.0641 0.009,58.8215 0.14165,61.683 0.68445,14.8129 5.99916,20.8061 25.80345,29.0978 2.59341,1.0858 5.03349,2.12 5.4224,2.2982 1.11466,0.5108 -47.27344,0.193 -49.67425,-0.3262 -10.03931,-2.1712 -13.49202,-5.5454 -15.77623,-15.4175 -0.56768,-2.4535 -0.61835,-4.8529 -1.15899,-54.8846 -0.0287,-2.6556 -0.13504,-3.2704 -0.56567,-3.2704 -0.29169,0 -0.53033,-0.2133 -0.53033,-0.4741 0,-0.596 -9.7267,-0.9401 -26.57352,-0.9401 -10.08452,0 -11.61025,0.07 -11.61025,0.5303 0,0.2917 -0.21682,0.5304 -0.48181,0.5304 -0.39058,0 -0.52693,1.9916 -0.72007,10.5182 -0.39326,17.3606 -1.27971,26.3201 -3.39998,34.3646 -1.91815,7.2776 -4.33662,12.0017 -8.30284,16.2184 -5.18103,5.5082 -11.92276,8.7738 -22.30774,10.8056 -9.42687,1.8443 -15.98516,2.2988 -36.382123,2.5214 -8.944901,0.098 -19.064931,0.2449 -22.488957,0.3274 l -6.225502,0.15 z M 207.17276,990.51389 c 0,-0.28202 0.23212,-0.64266 0.51582,-0.80143 0.41597,-0.23278 -1.15829,-3.88044 -8.13286,-18.84428 l -8.64867,-18.55562 -1.11007,0.0328 c -1.10367,0.0327 -1.16471,0.13974 -10.58148,18.56092 -7.48916,14.65035 -9.36545,18.58738 -8.96508,18.81143 0.27849,0.15586 0.50635,0.51411 0.50635,0.79613 0,0.44134 2.53607,0.51276 18.208,0.51276 15.67192,0 18.20799,-0.0714 18.20799,-0.51276 z"
       id="path1126"
       inkscape:connector-curvature="0"
       transform="scale(0.26458333)" />
    <path
       style="fill:#000000;fill-opacity:0;stroke:none;stroke-width:0.66813242;stroke-linecap:square;stroke-linejoin:round;stroke-miterlimit:4;stroke-dasharray:none;stroke-dashoffset:0;stroke-opacity:1;paint-order:fill markers stroke"
       d="m 71.264961,1100.0275 c 2.793157,-4.2526 4.385943,-9.8123 4.385943,-15.3092 0,-5.5318 -1.593032,-11.0569 -4.436014,-15.3855 -0.865917,-1.3183 -1.574394,-2.4384 -1.574394,-2.4889 0,-0.051 8.869771,-0.163 19.710601,-0.25 20.962273,-0.1682 23.381653,-0.3398 28.902993,-2.0494 3.46937,-1.0743 5.64241,-2.2484 7.7044,-4.1627 4.84353,-4.4967 7.00128,-11.0117 8.02831,-24.24 0.21639,-2.7872 0.35413,-27.2476 0.35439,-62.93255 3.8e-4,-50.54568 0.0742,-59.01339 0.55071,-63.14632 1.48434,-12.87492 4.44792,-17.47234 12.95355,-20.09499 2.96916,-0.91552 8.48506,-1.72741 13.54215,-1.99329 2.139,-0.11245 4.80391,-0.28766 5.92202,-0.38936 l 2.03293,-0.18489 v 13.62936 c 0,11.87929 0.0681,13.62936 0.53033,13.62936 0.29168,0 0.53033,0.23865 0.53033,0.53033 0,0.46486 2.35703,0.53033 19.09189,0.53033 16.73485,0 19.09188,-0.0655 19.09188,-0.53033 0,-0.29168 0.23865,-0.53033 0.53033,-0.53033 0.46226,0 0.53033,-1.75423 0.53033,-13.66675 v -13.66675 l 7.01857,0.24132 c 21.39609,0.73568 26.00936,4.43969 26.8167,21.53124 0.18491,3.91459 0.31347,4.63192 0.96632,5.39169 l 0.75304,0.87636 h 19.44812 19.44812 l -1.48558,3.03426 c -2.20875,4.51133 -2.7875,7.2001 -2.77142,12.87564 0.01,3.44094 0.18891,5.41432 0.64199,7.07107 0.89191,3.26144 3.06064,7.59848 5.13327,10.26557 l 1.77615,2.28557 -20.84142,0.0912 c -18.20003,0.0796 -20.84142,0.15804 -20.84142,0.61871 0,0.29014 -0.23398,0.52753 -0.51996,0.52753 -0.455,0 -0.5323,7.05644 -0.61872,56.48012 -0.0543,31.0641 0.009,58.8215 0.14165,61.683 0.68445,14.8129 5.99916,20.8061 25.80345,29.0978 2.59341,1.0858 5.03349,2.12 5.4224,2.2982 1.11466,0.5108 -47.27344,0.193 -49.67425,-0.3262 -10.03931,-2.1712 -13.49202,-5.5454 -15.77623,-15.4175 -0.56768,-2.4535 -0.61835,-4.8529 -1.15899,-54.8846 -0.0287,-2.6556 -0.13504,-3.2704 -0.56567,-3.2704 -0.29169,0 -0.53033,-0.2133 -0.53033,-0.4741 0,-0.596 -9.7267,-0.9401 -26.57352,-0.9401 -10.08452,0 -11.61025,0.07 -11.61025,0.5303 0,0.2917 -0.21682,0.5304 -0.48181,0.5304 -0.39058,0 -0.52693,1.9916 -0.72007,10.5182 -0.39326,17.3606 -1.27971,26.3201 -3.39998,34.3646 -1.91815,7.2776 -4.33662,12.0017 -8.30284,16.2184 -5.18103,5.5082 -11.92276,8.7738 -22.30774,10.8056 -9.42687,1.8443 -15.98516,2.2988 -36.382123,2.5214 -8.944901,0.098 -19.064931,0.2449 -22.488957,0.3274 l -6.225502,0.15 z M 207.17276,990.51389 c 0,-0.28202 0.23212,-0.64266 0.51582,-0.80143 0.41597,-0.23278 -1.15829,-3.88044 -8.13286,-18.84428 l -8.64867,-18.55562 -1.11007,0.0328 c -1.10367,0.0327 -1.16471,0.13974 -10.58148,18.56092 -7.48916,14.65035 -9.36545,18.58738 -8.96508,18.81143 0.27849,0.15586 0.50635,0.51411 0.50635,0.79613 0,0.44134 2.53607,0.51276 18.208,0.51276 15.67192,0 18.20799,-0.0714 18.20799,-0.51276 z"
       id="path1128"
       inkscape:connector-curvature="0"
       transform="scale(0.26458333)" />
  </g>
</svg>
